<svg xmlns="http://www.w3.org/2000/svg" viewBox="0 0 192 192"><path fill="none" d="M0 0h192v192H0z"/><circle cx="88" cy="84" r="60" fill="none" stroke="#0b41cd" stroke-linecap="round" stroke-linejoin="round" stroke-width="8"/><path fill="none" stroke="#0b41cd" stroke-linecap="round" stroke-linejoin="round" stroke-width="8" d="M128.8 128l34.8 40"/><path fill="none" stroke="#1482fa" stroke-linecap="round" stroke-linejoin="round" stroke-width="8" d="M70.4 69.8c-.2-9.9 7.6-18.1 17.5-18.3 9.9-.2 18.1 7.6 18.3 17.5v.8c0 7.8-8.1 14.6-12.4 16.5-3.2 1.5-5.3 4.7-5.4 8.2v7.2M88.3 113.9s0 0 0 0c.9 0 1.6.7 1.6 1.5 0 0 0 0 0 0 0 .9-.7 1.6-1.6 1.6M88.3 117c-.9 0-1.6-.7-1.6-1.6 0-.9.7-1.6 1.6-1.6"/></svg>