<svg xmlns="http://www.w3.org/2000/svg" viewBox="0 0 192 192"><circle cx="96" cy="81" r="12" fill="none" stroke="#1482fa" stroke-linecap="round" stroke-linejoin="round" stroke-width="8"/><path fill="none" stroke="#0b41cd" stroke-linecap="round" stroke-linejoin="round" stroke-width="8" d="M92 116h8a8 8 0 0 1 8 8v36a8 8 0 0 0 8 8h40a12 12 0 0 0 12-12V88.58a12 12 0 0 0-4.1-9L103.76 27A12 12 0 0 0 88 27L28.08 79.55a12 12 0 0 0-4.08 9V156a12 12 0 0 0 12 12h40a8 8 0 0 0 8-8v-36a8 8 0 0 1 8-8z"/></svg>